<svg id="Capa_1" data-name="Capa 1" xmlns="http://www.w3.org/2000/svg" viewBox="0 0 512 512"><defs><style>.cls-1{fill:#547d87;}</style></defs><title>packs-choice</title><path class="cls-1" d="M482,246.13H377.45V215.74a85.15,85.15,0,0,0-77.17-84.66L300,131A58.79,58.79,0,0,0,315,91.67V10A10,10,0,0,0,305,0H244.29A47.39,47.39,0,0,0,197,47.33V91.67A58.79,58.79,0,0,0,212,131l-.31.07a85.15,85.15,0,0,0-77.17,84.66v30.39H30a30,30,0,0,0-30,30V482a30,30,0,0,0,30,30H303a10,10,0,0,0,0-20H30a10,10,0,0,1-10-10V276.13a10,10,0,0,1,10-10H482a10,10,0,0,1,10,10V482a10,10,0,0,1-10,10H390.5a10,10,0,0,0,0,20H482a30,30,0,0,0,30-30V276.13A30,30,0,0,0,482,246.13ZM256,130.71a39.09,39.09,0,0,1-39-39V78.45h59.77A38.1,38.1,0,0,0,295,73.79V91.67A39.09,39.09,0,0,1,256,130.71Zm17.43,20L256,168.14l-17.43-17.43ZM217,47.33h0A27.36,27.36,0,0,1,244.3,20H295V40.14a18.33,18.33,0,0,1-18.31,18.31H217V47.33ZM357.45,246H154.55V215.74a65.13,65.13,0,0,1,56.33-64.44l38.05,38a10,10,0,0,0,14.14,0l38.05-38a65.12,65.12,0,0,1,56.33,64.44Z"/><path class="cls-1" d="M355.07,494.93A10,10,0,1,0,358,502,10.08,10.08,0,0,0,355.07,494.93Z"/><path class="cls-1" d="M298,301.94H214a20,20,0,0,0-20,20v15.39a10,10,0,0,0,20,0V321.94h84v116H214V413a10,10,0,0,0-20,0v24.94a20,20,0,0,0,20,20h84a20,20,0,0,0,20-20v-116A20,20,0,0,0,298,301.94Z"/><path class="cls-1" d="M211.07,369a10,10,0,1,0,2.93,7.07A10,10,0,0,0,211.07,369Z"/><path class="cls-1" d="M452,301.94H368a20,20,0,0,0-20,20v116a20,20,0,0,0,20,20h84a20,20,0,0,0,20-20v-116A20,20,0,0,0,452,301.94Zm0,136H368v-116h84v116Z"/><path class="cls-1" d="M119,389.91H85a10,10,0,0,0,0,20h34a10,10,0,1,0,0-20Z"/><path class="cls-1" d="M119,350H85a10,10,0,0,0,0,20h34a10,10,0,0,0,0-20Z"/><path class="cls-1" d="M273.13,389.91h-34a10,10,0,1,0,0,20h34a10,10,0,0,0,0-20Z"/><path class="cls-1" d="M273.13,350h-34a10,10,0,0,0,0,20h34a10,10,0,0,0,0-20Z"/><path class="cls-1" d="M427.25,389.91h-34a10,10,0,0,0,0,20h34a10,10,0,0,0,0-20Z"/><path class="cls-1" d="M427.25,350h-34a10,10,0,0,0,0,20h34a10,10,0,0,0,0-20Z"/><path class="cls-1" d="M144,301.94H60a20,20,0,0,0-20,20v116a20,20,0,0,0,20,20h84a20,20,0,0,0,20-20v-116A20,20,0,0,0,144,301.94Zm0,136H60v-116h84v116Z"/></svg>