<svg xmlns="http://www.w3.org/2000/svg" viewBox="0 0 512 512"><defs><style>.cls-1{fill:#547d87;}</style></defs><title>2-discuss</title><g id="Calque_2" data-name="Calque 2"><g id="Capa_1" data-name="Capa 1"><path class="cls-1" d="M457.35,408a45.88,45.88,0,0,0,8.73-27V321a10,10,0,0,0-10-10H411.39a37.51,37.51,0,0,0-37.47,37.47v32.62A45.81,45.81,0,0,0,382.64,408a64.29,64.29,0,0,0-19.54,6.51,85.11,85.11,0,0,0-62.82-37.45L300,377A58.79,58.79,0,0,0,315,337.67V256a10,10,0,0,0-10-10H244.3A47.39,47.39,0,0,0,197,293.33v44.34A58.79,58.79,0,0,0,212,377l-.31.07a85.09,85.09,0,0,0-62.82,37.45A64.62,64.62,0,0,0,129.35,408a45.82,45.82,0,0,0,8.73-26.93V321a10,10,0,0,0-10-10H83.39a37.51,37.51,0,0,0-37.47,37.47v32.62a45.82,45.82,0,0,0,8.74,27A65.29,65.29,0,0,0,0,472.38V502a10,10,0,0,0,10,10H502a10,10,0,0,0,10-10V472.38A65.3,65.3,0,0,0,457.35,408ZM65.92,348.47A17.49,17.49,0,0,1,83.39,331h34.69v12.18A10.84,10.84,0,0,1,107.25,354H65.92Zm0,25.54h41.33a30.65,30.65,0,0,0,10.83-2v9a26.08,26.08,0,1,1-52.16,0Zm32.53,53.16L92,433.62l-6.45-6.45Zm36.1,34.57V492H20V472.38a45.28,45.28,0,0,1,37.87-44.61l27.06,27.06a10,10,0,0,0,14.14,0l27.06-27.07a44.73,44.73,0,0,1,13.67,4.58A84.56,84.56,0,0,0,134.55,461.74Zm121.45-85a39.09,39.09,0,0,1-39-39V324.45h59.77A38.1,38.1,0,0,0,295,319.79v17.88A39.08,39.08,0,0,1,256,376.71Zm17.43,20L256,414.14l-17.43-17.43ZM217,293.33h0A27.36,27.36,0,0,1,244.3,266H295v20.14a18.33,18.33,0,0,1-18.31,18.31H217V293.33ZM357.45,492H154.55V472h65.12a10,10,0,0,0,0-20H155.28a65.18,65.18,0,0,1,55.6-54.7l38.05,38.05a10,10,0,0,0,14.14,0l38.05-38.05a65.13,65.13,0,0,1,56.33,64.44V492Zm36.47-143.53A17.49,17.49,0,0,1,411.39,331h34.69v12.18A10.84,10.84,0,0,1,435.25,354H393.92Zm0,25.54h41.33a30.65,30.65,0,0,0,10.83-2v9a26.08,26.08,0,1,1-52.16,0V374Zm32.53,53.16L420,433.62l-6.45-6.45Zm-49,64.83V461.74a84.56,84.56,0,0,0-5.25-29.4,44.58,44.58,0,0,1,13.66-4.58l27.07,27.07a10,10,0,0,0,14.14,0l27.06-27.06A45.28,45.28,0,0,1,492,472.38V492Z"/><path class="cls-1" d="M305.28,65.34a10,10,0,0,0-14.14,0l-49.07,49.07L220.86,93.2a10,10,0,1,0-14.14,14.14L235,135.62a10,10,0,0,0,14.14,0l56.14-56.14A10,10,0,0,0,305.28,65.34Z"/><path class="cls-1" d="M296.89,8.67a10,10,0,0,0-8.15,18.27,80.47,80.47,0,1,1-65.83.15,10,10,0,1,0-8.23-18.23,100.48,100.48,0,1,0,82.21-.19Z"/><path class="cls-1" d="M256.36,0H256a10,10,0,0,0,0,20h.31a10,10,0,0,0,.05-20Z"/><path class="cls-1" d="M263.07,454.93A10,10,0,1,0,266,462,10.08,10.08,0,0,0,263.07,454.93Z"/></g></g></svg>