<svg xmlns="http://www.w3.org/2000/svg" viewBox="0 0 378.32 486.9"><defs><style>.cls-1{fill:#547d87;}</style></defs><title>3-plan</title><g id="Calque_2" data-name="Calque 2"><g id="Capa_1" data-name="Capa 1"><path class="cls-1" d="M320,93.2a46.6,46.6,0,1,0-46.4-46.6A46.54,46.54,0,0,0,320,93.2Zm0-69.1a22.6,22.6,0,1,1-22.4,22.5A22.53,22.53,0,0,1,320,24.1Z"/><path class="cls-1" d="M46.4,393.7a46.6,46.6,0,1,0,46.4,46.6A46.54,46.54,0,0,0,46.4,393.7Zm0,69.2a22.6,22.6,0,1,1,22.4-22.6A22.53,22.53,0,0,1,46.4,462.9Z"/><path class="cls-1" d="M161.1,206.5a12,12,0,0,0,8.5,3.5,12.21,12.21,0,0,0,8.5-3.5,12,12,0,0,0,0-17l-25-25,25-25a12,12,0,0,0-17-17l-25,25-25-25a12,12,0,0,0-17,17l25,25-25,25a12,12,0,0,0,8.5,20.5,12.21,12.21,0,0,0,8.5-3.5l25-25Z"/><path class="cls-1" d="M362,315a12,12,0,0,0-17,0l-25,25-25-25a12,12,0,0,0-17,17l25,25-25,25a12,12,0,0,0,8.5,20.5A12.21,12.21,0,0,0,295,399l25-25,25,25a12,12,0,0,0,8.5,3.5A12.21,12.21,0,0,0,362,399a12,12,0,0,0,0-17l-25-25,25-25A12,12,0,0,0,362,315Z"/><path class="cls-1" d="M219.8,376.9a12,12,0,0,0-17,0l-25,25-25-25a12,12,0,0,0-17,17l25,25-25,25a12,12,0,0,0,8.5,20.5,12.21,12.21,0,0,0,8.5-3.5l25-25,25,25a12,12,0,0,0,8.5,3.5,12.21,12.21,0,0,0,8.5-3.5,12,12,0,0,0,0-17l-25-25,25-25A12.2,12.2,0,0,0,219.8,376.9Z"/><path class="cls-1" d="M142.1,286.7a12,12,0,1,0-12-12A12,12,0,0,0,142.1,286.7Z"/><path class="cls-1" d="M53.2,322.1a12.16,12.16,0,0,0,6.6,2,12,12,0,1,0-6.6-2Z"/><path class="cls-1" d="M90.7,270.8a12,12,0,0,0,4.9,22.9,12.28,12.28,0,0,0,4.9-1,11.94,11.94,0,0,0,6.1-15.8A12.08,12.08,0,0,0,90.7,270.8Z"/><circle class="cls-1" cx="189.6" cy="274.7" r="12"/><path class="cls-1" d="M46.4,369a12,12,0,1,0-8.5-3.5A12.12,12.12,0,0,0,46.4,369Z"/><path class="cls-1" d="M374.8,170.2l-46.4-46.4a12,12,0,0,0-17,0L265,170.2a12,12,0,0,0,17,17l25.9-25.9v31c0,38.8-31.8,70.3-70.9,70.3a12,12,0,0,0,0,24c52.3,0,94.9-42.3,94.9-94.3V161.2l25.9,25.9a12,12,0,0,0,8.5,3.5,12.21,12.21,0,0,0,8.5-3.5A11.89,11.89,0,0,0,374.8,170.2Z"/></g></g></svg>