<svg xmlns="http://www.w3.org/2000/svg" viewBox="0 0 512 512"><defs><style>.cls-1{fill:#547d87;}</style></defs><title>4-design</title><g id="Calque_2" data-name="Calque 2"><g id="Calque_1-2" data-name="Calque 1"><path class="cls-1" d="M316,346a10,10,0,1,0,10,10A10,10,0,0,0,316,346Z"/><path class="cls-1" d="M462,0H50A50.06,50.06,0,0,0,0,50V356a50.06,50.06,0,0,0,50,50H206v46H196a50,50,0,0,0-50,50,10,10,0,0,0,10,10H356a10,10,0,0,0,10-10,50.06,50.06,0,0,0-50-50H306V406H462a50.06,50.06,0,0,0,50-50V50A50.06,50.06,0,0,0,462,0ZM50,20H462a30,30,0,0,1,30,30V306H446V76a10,10,0,0,0-10-10H356a10,10,0,0,0-10,10V306H296c-.11-10.34-.38-20.54-.81-30.43-1.75-40.73-5.74-68-7.81-80A50,50,0,0,0,301,130.34l-34.66-60a10,10,0,0,0-17.32,0l-34.68,60a50,50,0,0,0,11,63.11c-2.17,12-6.53,40.22-8.43,82.1-.45,10-.74,20.2-.85,30.45H166V156a9.87,9.87,0,0,0-1-4.32.94.94,0,0,1-.06-.15l-40-80a10,10,0,0,0-17.9,0l-40,80a.94.94,0,0,1-.06.15A10,10,0,0,0,66,156V306H20V50A30,30,0,0,1,50,20ZM366,306V86h60v20H416a10,10,0,0,0,0,20h10v30H416a10,10,0,0,0,0,20h10v30H416a10,10,0,0,0,0,20h10v40H416a10,10,0,0,0,0,20h10v20ZM257.66,205.31a50.18,50.18,0,0,0,10.79-1.2C270.3,216,273,237.05,274.64,266H237.42c1.69-28.93,4.55-50.3,6.52-62.6A50.12,50.12,0,0,0,257.66,205.31Zm0-20c-22.86,0-37.59-24.88-26-45l26-45,26,45C295.2,160.35,280.66,185.31,257.66,185.31ZM236.5,286h39c.21,6.57.36,13.25.43,20h-39.9C236.13,299.3,236.28,292.61,236.5,286ZM126,306V166h20V306Zm-40,0V166h20V306Zm6.18-160L116,98.36,139.82,146ZM344.29,492H167.7A30.08,30.08,0,0,1,196,472H316A30.06,30.06,0,0,1,344.29,492ZM286,452H226V406h60Zm176-66H50a30,30,0,0,1-30-30V326H492v30A30,30,0,0,1,462,386Z"/><path class="cls-1" d="M276,346H216a10,10,0,0,0,0,20h60a10,10,0,0,0,0-20Z"/></g></g></svg>