<svg xmlns="http://www.w3.org/2000/svg" viewBox="0 0 392.18 356.28"><defs><style>.cls-1{fill:#547d87;}</style></defs><title>5-code</title><g id="Calque_2" data-name="Calque 2"><g id="Capa_1" data-name="Capa 1"><path class="cls-1" d="M368.62,0h-345A23.59,23.59,0,0,0,0,23.57V332.71a23.59,23.59,0,0,0,23.57,23.57H368.62a23.59,23.59,0,0,0,23.56-23.57V23.57A23.58,23.58,0,0,0,368.62,0ZM297.56,39.58a8.71,8.71,0,0,1,8.7-8.71H315a8.7,8.7,0,0,1,8.7,8.71v9.86a8.69,8.69,0,0,1-8.7,8.7h-8.7a8.7,8.7,0,0,1-8.7-8.7Zm-40.47,0a8.71,8.71,0,0,1,8.71-8.71h8.7a8.71,8.71,0,0,1,8.7,8.71v9.86a8.7,8.7,0,0,1-8.7,8.7h-8.7a8.7,8.7,0,0,1-8.71-8.7ZM363.9,328H28.28V84.28H363.9V328Zm.23-278.56a8.69,8.69,0,0,1-8.7,8.7h-8.7a8.69,8.69,0,0,1-8.7-8.7V39.58a8.7,8.7,0,0,1,8.7-8.71h8.7a8.7,8.7,0,0,1,8.7,8.71Z"/><path class="cls-1" d="M84.18,215.33l63.09,29.34a12.27,12.27,0,0,0,17.43-11.12v-.32a12.3,12.3,0,0,0-7.1-11.12l-39.46-18.33,39.46-18.34a12.29,12.29,0,0,0,7.1-11.11V174a12.23,12.23,0,0,0-12.28-12.25,12.39,12.39,0,0,0-5.16,1.13L84.18,192.22a12.33,12.33,0,0,0-7.09,11.12v.88A12.31,12.31,0,0,0,84.18,215.33Z"/><path class="cls-1" d="M165.26,275.09a12.32,12.32,0,0,0,9.9,5h.31a12.22,12.22,0,0,0,11.67-8.52L228.7,142.84a12.26,12.26,0,0,0-11.67-16h-.32A12.23,12.23,0,0,0,205,135.35L163.48,264.12A12.31,12.31,0,0,0,165.26,275.09Z"/><path class="cls-1" d="M227.49,174.33a12.32,12.32,0,0,0,7.1,11.12L274,203.78l-39.45,18.33a12.29,12.29,0,0,0-7.1,11.11v.33a12.28,12.28,0,0,0,12.26,12.26,12.33,12.33,0,0,0,5.17-1.14L308,215.33a12.31,12.31,0,0,0,7.09-11.11v-.88A12.31,12.31,0,0,0,308,192.22l-63.08-29.33A12.26,12.26,0,0,0,227.49,174v.31h0Z"/></g></g></svg>