<svg xmlns="http://www.w3.org/2000/svg" viewBox="0 0 937.5 937.5"><defs><style>.cls-1{fill:#547d87;}</style></defs><title>2-discuss</title><g id="Calque_2" data-name="Calque 2"><g id="Calque_1-2" data-name="Calque 1"><g id="surface1"><path class="cls-1" d="M875,125v31.25a31.25,31.25,0,0,1,31.25,31.25V656.25h-875V187.5A31.25,31.25,0,0,1,62.5,156.25V125A62.5,62.5,0,0,0,0,187.5V718.75a62.5,62.5,0,0,0,62.5,62.5H369.63l-37.5,125H296.88V937.5H640.63V906.25H605.38l-37.5-125H875a62.5,62.5,0,0,0,62.5-62.5V187.5A62.5,62.5,0,0,0,875,125ZM572.75,906.25h-208l37.5-125h133Zm333.5-187.5A31.25,31.25,0,0,1,875,750H62.5a31.25,31.25,0,0,1-31.25-31.25V687.5h875Z"/><path class="cls-1" d="M156.25,625h625a62.5,62.5,0,0,0,62.5-62.5V62.5A62.5,62.5,0,0,0,781.25,0h-625a62.5,62.5,0,0,0-62.5,62.5v500A62.5,62.5,0,0,0,156.25,625ZM125,62.5a31.25,31.25,0,0,1,31.25-31.25h625A31.25,31.25,0,0,1,812.5,62.5v500a31.25,31.25,0,0,1-31.25,31.25h-625A31.25,31.25,0,0,1,125,562.5Z"/><path class="cls-1" d="M156.25,125h625v31.25h-625Z"/><path class="cls-1" d="M156.25,203.13H296.88v31.25H156.25Z"/><path class="cls-1" d="M156.25,265.63H265.63v31.25H156.25Z"/><path class="cls-1" d="M156.25,328.13H250v31.25H156.25Z"/><path class="cls-1" d="M156.25,390.63H250v31.25H156.25Z"/><path class="cls-1" d="M156.25,453.13H250v31.25H156.25Z"/><path class="cls-1" d="M156.25,515.63H296.88v31.25H156.25Z"/><path class="cls-1" d="M640.63,203.13H781.25v31.25H640.63Z"/><path class="cls-1" d="M671.88,265.63H781.25v31.25H671.88Z"/><path class="cls-1" d="M687.5,328.13h93.75v31.25H687.5Z"/><path class="cls-1" d="M687.5,390.63h93.75v31.25H687.5Z"/><path class="cls-1" d="M687.5,453.13h93.75v31.25H687.5Z"/><path class="cls-1" d="M640.63,515.63H781.25v31.25H640.63Z"/><path class="cls-1" d="M156.25,62.5H187.5V93.75H156.25Z"/><path class="cls-1" d="M218.75,62.5H250V93.75H218.75Z"/><path class="cls-1" d="M281.25,62.5H312.5V93.75H281.25Z"/><path class="cls-1" d="M595.57,435.52q3.16-6.69,5.65-13.64h39.41a15.62,15.62,0,0,0,15.62-15.63v-62.5a15.62,15.62,0,0,0-15.62-15.62H601.22q-2.49-7-5.65-13.65l27.87-27.87a15.62,15.62,0,0,0,0-22.09l-44.21-44.21a15.62,15.62,0,0,0-22.09,0l-27.87,27.86a147.13,147.13,0,0,0-13.64-5.64v-39.4A15.63,15.63,0,0,0,500,187.5H437.5a15.62,15.62,0,0,0-15.62,15.63v39.4q-7,2.49-13.65,5.65l-27.87-27.87a15.62,15.62,0,0,0-22.09,0l-44.21,44.21a15.62,15.62,0,0,0,0,22.09l27.86,27.87a143.6,143.6,0,0,0-5.65,13.65H296.88a15.62,15.62,0,0,0-15.63,15.62v62.5a15.63,15.63,0,0,0,15.63,15.63h39.4q2.49,7,5.65,13.64l-27.87,27.87a15.62,15.62,0,0,0,0,22.09l44.21,44.21a15.62,15.62,0,0,0,22.09,0l27.87-27.86a143.6,143.6,0,0,0,13.65,5.65v39.4A15.62,15.62,0,0,0,437.5,562.5H500a15.62,15.62,0,0,0,15.63-15.62V507.47q7-2.49,13.64-5.65l27.87,27.87a15.62,15.62,0,0,0,22.09,0l44.21-44.21a15.62,15.62,0,0,0,0-22.09Zm-27.39,60.93-25-25a15.64,15.64,0,0,0-19-2.4,109.54,109.54,0,0,1-28.12,11.64,15.61,15.61,0,0,0-11.72,15.12v35.44H453.13V495.9a15.63,15.63,0,0,0-11.72-15.12,109.4,109.4,0,0,1-28.13-11.64,15.63,15.63,0,0,0-19,2.41l-25,25-22.09-22.08,25-25a15.66,15.66,0,0,0,2.41-19A109.09,109.09,0,0,1,363,402.34a15.6,15.6,0,0,0-15.12-11.72H312.5V359.38h35.35A15.63,15.63,0,0,0,363,347.66a109.4,109.4,0,0,1,11.64-28.13,15.63,15.63,0,0,0-2.41-19l-25-25,22.08-22.09,25,25a15.66,15.66,0,0,0,19,2.41,109.09,109.09,0,0,1,28.11-11.65,15.6,15.6,0,0,0,11.72-15.12V218.75h31.25V254.1a15.63,15.63,0,0,0,11.72,15.12,109.25,109.25,0,0,1,28.13,11.64,15.64,15.64,0,0,0,19-2.41l25-25,22.09,22.08-25,25a15.66,15.66,0,0,0-2.41,19,109.06,109.06,0,0,1,11.64,28.11,15.62,15.62,0,0,0,15.13,11.72H625v31.25H589.65a15.63,15.63,0,0,0-15.12,11.72,109.25,109.25,0,0,1-11.64,28.13,15.64,15.64,0,0,0,2.41,19l25,25Z"/><path class="cls-1" d="M468.75,296.88A78.13,78.13,0,1,0,546.88,375,78.13,78.13,0,0,0,468.75,296.88Zm0,125A46.88,46.88,0,1,1,515.63,375,46.89,46.89,0,0,1,468.75,421.88Z"/></g></g></g></svg>