<svg xmlns="http://www.w3.org/2000/svg" viewBox="0 0 430.11 430.12"><defs><style>.cls-1{fill:#fff;}</style></defs><title>linkedin-blanc</title><g id="Calque_2" data-name="Calque 2"><g id="Capa_1" data-name="Capa 1"><path id="LinkedIn_alt_" data-name="LinkedIn (alt)" class="cls-1" d="M398.35,0H31.78C14.23,0,0,13.79,0,30.82V399.29c0,17,14.23,30.83,31.78,30.83H398.35c17.55,0,31.76-13.82,31.76-30.83V30.82C430.11,13.8,415.9,0,398.35,0Zm-268,360h-65V165.85h65ZM97.91,139.32h-.44c-21.79,0-35.92-14.91-35.92-33.57,0-19,14.55-33.53,36.77-33.53s35.9,14.49,36.33,33.53C134.65,124.42,120.55,139.32,97.91,139.32ZM364.66,360h-65V256.14c0-26.11-9.41-43.92-32.91-43.92-18,0-28.64,12-33.32,23.62-1.74,4.14-2.17,9.94-2.17,15.73V360H166.34s.85-176,0-194.19h65v27.53c8.62-13.23,24-32.1,58.53-32.1,42.76,0,74.83,27.74,74.83,87.42V360ZM230.88,194c.11-.18.27-.4.42-.61V194Z"/></g></g></svg>