<svg xmlns="http://www.w3.org/2000/svg" viewBox="0 0 502.64 295.41"><defs><style>.cls-1{fill:#cc0056;}</style></defs><title>a_propos</title><g id="Calque_2" data-name="Calque 2"><g id="Capa_1" data-name="Capa 1"><path class="cls-1" d="M251.26,134a67,67,0,1,0-66.87-67A67,67,0,0,0,251.26,134Z"/><path class="cls-1" d="M305,144.89H197.65c-19.19,0-34.92,17.6-34.92,39.19V291.94c0,1.19.6,2.24.67,3.47H339.22a34.35,34.35,0,0,0,.63-3.47V184.08C339.91,162.49,324.19,144.89,305,144.89Z"/><path class="cls-1" d="M431.59,165.94A53.69,53.69,0,1,0,378,112.28,53.6,53.6,0,0,0,431.59,165.94Z"/><path class="cls-1" d="M474.71,174.7h-86c-15.44,0-28.06,14.11-28.06,31.47v86.42c0,.92.45,1.81.52,2.82h141c.06-1,.49-1.9.49-2.82V206.17C502.71,188.81,490.11,174.7,474.71,174.7Z"/><path class="cls-1" d="M71,165.94a53.69,53.69,0,1,0-53.6-53.66A53.61,53.61,0,0,0,71,165.94Z"/><path class="cls-1" d="M114.11,174.7H28c-15.4,0-28,14.11-28,31.47v86.42c0,.92.45,1.81.54,2.82h141c.06-1,.47-1.9.47-2.82V206.17C142.09,188.81,129.49,174.7,114.11,174.7Z"/></g></g></svg>