<svg xmlns="http://www.w3.org/2000/svg" viewBox="0 0 512 512"><defs><style>.cls-1{fill:#cc0056;}</style></defs><title>blog</title><g id="Calque_2" data-name="Calque 2"><g id="Capa_1" data-name="Capa 1"><path class="cls-1" d="M467,0H45A45.05,45.05,0,0,0,0,45v76H512V45A45.05,45.05,0,0,0,467,0ZM75,90A15,15,0,1,1,90,75,15,15,0,0,1,75,90Zm60,0a15,15,0,1,1,15-15A15,15,0,0,1,135,90Zm60,0a15,15,0,1,1,15-15A15,15,0,0,1,195,90Z"/><path class="cls-1" d="M0,151V467a45.05,45.05,0,0,0,45,45H467a45.05,45.05,0,0,0,45-45V151Zm60,46a15,15,0,0,1,15-15H225a15,15,0,0,1,15,15V317a15,15,0,0,1-15,15H75a15,15,0,0,1-15-15ZM437,452H75a15,15,0,0,1,0-30H437a15,15,0,0,1,0,30Zm0-60H75a15,15,0,0,1,0-30H437a15,15,0,0,1,0,30Zm0-60H285a15,15,0,0,1,0-30H437a15,15,0,0,1,0,30Zm0-60H285a15,15,0,0,1,0-30H437a15,15,0,0,1,0,30Z"/><rect class="cls-1" x="90" y="212" width="120" height="90"/></g></g></svg>