<svg xmlns="http://www.w3.org/2000/svg" viewBox="0 0 372 332.8"><defs><style>.cls-1{fill:#547d87;}</style></defs><title>1.marketing</title><g id="Calque_2" data-name="Calque 2"><g id="Capa_1" data-name="Capa 1"><path class="cls-1" d="M320,0H52C26.88,0,0,13.68,0,52V231.68c0,38.32,26.88,52,52,52h99.2V316.8H134.72a8,8,0,1,0,0,16h105.6a8,8,0,0,0,0-16H220.8V283.68H320c38.32,0,52-26.88,52-52V52C372,13.68,345.12,0,320,0ZM204.8,316.8H167.2V283.68h37.6V316.8ZM356,231.68c0,10.8-3.52,36-36,36H52c-10.8,0-36-3.52-36-36V220.24H356Zm0-27.36H16v-152c0-32.48,25.2-36,36-36H320c10.8,0,36,3.52,36,36Z"/><path class="cls-1" d="M315.69,37.76a8,8,0,0,0-11.2,1.59h.39l-59.68,80L217.2,83a8,8,0,0,0-12.32-.4l-45.6,51.84L125.84,77.28a8,8,0,0,0-13.68-.08L57,166.4a8,8,0,1,0,13.6,8l48-78.24,32,55.12a8,8,0,0,0,10.95,2.87,8.19,8.19,0,0,0,1.93-1.59L210,100.48l28.56,37.12a9.29,9.29,0,0,0,6.4,3.12,8,8,0,0,0,6.32-3.2l66-88.56A8,8,0,0,0,315.69,37.76Z"/></g></g></svg>